# xmcd CD database file
#
# Track frame offsets:
#	150
#	51115
#	54434
#	115340
#	117187
#	160070
#	161470
#	165187
#	195331
#	231259
#	288684
#
# Disc length: 3891 seconds
#
# Revision: 0
# Processed by: cddbd v1.5.2PL0 Copyright (c) Steve Scherf et al.
# Submitted via: CDex 1.60beta1-cs1
#
DISCID=890f310b
DTITLE=Art Pepper - The Legendary 1980 recording session [CD2]
DYEAR=1900
DGENRE=Jazz
TTITLE0=Untitled #34
TTITLE1=talk, Wierd Noise
TTITLE2=A Song for Richard
TTITLE3=talk, Rhythm-a-Ning
TTITLE4=Rhythm-a-Ning
TTITLE5=talk, Rita san Intro
TTITLE6=Rita san false start
TTITLE7=Rita san
TTITLE8=What's New
TTITLE9=I'll Remember April
TTITLE10=talk, Good Night
EXTD=
EXTT0=
EXTT1=
EXTT2=
EXTT3=
EXTT4=
EXTT5=
EXTT6=
EXTT7=
EXTT8=
EXTT9=
EXTT10=
PLAYORDER=
